HIERARCHY
ROOT ui
{
	 OFFSET 0 0 0
	 CHANNELS 3 XPosition YPosition Z Position
	 EndSite
	 {
	 OFFSET 0 -1 0
	 }
}
ROOT li
{
	 OFFSET 0 0 0
	 CHANNELS 3 XPosition YPosition Z Position
	 EndSite
	 {
	 OFFSET 0 -1 0
	 }
}
ROOT ul
{
	 OFFSET 0 0 0
	 CHANNELS 3 XPosition YPosition Z Position
	 EndSite
	 {
	 OFFSET 0 -1 0
	 }
}
ROOT ll
{
	 OFFSET 0 0 0
	 CHANNELS 3 XPosition YPosition Z Position
	 EndSite
	 {
	 OFFSET 0 -1 0
	 }
}
ROOT tt
{
	 OFFSET 0 0 0
	 CHANNELS 3 XPosition YPosition Z Position
	 EndSite
	 {
	 OFFSET 0 -1 0
	 }
}
ROOT tb
{
	 OFFSET 0 0 0
	 CHANNELS 3 XPosition YPosition Z Position
	 EndSite
	 {
	 OFFSET 0 -1 0
	 }
}
ROOT td
{
	 OFFSET 0 0 0
	 CHANNELS 3 XPosition YPosition Z Position
	 EndSite
	 {
	 OFFSET 0 -1 0
	 }
}
ROOT v
{
	 OFFSET 0 0 0
	 CHANNELS 3 XPosition YPosition Z Position
	 EndSite
	 {
	 OFFSET 0 -1 0
	 }
}
ROOT bn
{
	 OFFSET 0 0 0
	 CHANNELS 3 XPosition YPosition Z Position
	 EndSite
	 {
	 OFFSET 0 -1 0
	 }
}
MOTION
Frames: 19
Frame Time: 0.002
0.027338647842407228	-0.0056149959564208984	0		0.5653832397460937	-2.743981201171875	0		-0.97264306640625	0.20338636779785157	0		-0.4407914123535156	-3.348978271484375	0		2.0077818603515625	-1.79347900390625	0		3.301264404296875	-0.702730712890625	0		4.62281201171875	-0.2754771728515625	0		5.889017578125	0.329625244140625	0		-0.1447215118408203	5.93362841796875	0		
-0.0077052731513977055	0.004377792835235596	0		0.552281005859375	-2.7393134765625	0		-0.9860053100585937	0.19204519653320312	0		-0.39000137329101564	-3.35227490234375	0		2.063276123046875	-1.8158314208984374	0		3.289444091796875	-0.745068603515625	0		4.6264365234375	-0.2880338439941406	0		5.87959423828125	0.3142723388671875	0		-0.11284418487548828	5.9406171875	0		
0.014030756950378418	0.0015314539670944214	0		0.574979736328125	-2.746169677734375	0		-0.991267822265625	0.18959477233886718	0		-0.4611224670410156	-3.346733642578125	0		2.024078857421875	-1.8147481689453124	0		3.289233642578125	-0.744558837890625	0		4.62622216796875	-0.2875130310058594	0		5.8883740234375	0.3146688232421875	0		0.005056495189666748	5.95133203125	0		
-0.002350255012512207	-0.006733098983764649	0		0.5785332641601563	-2.76072705078125	0		-0.9955772094726563	0.18614053344726564	0		-0.38769064331054687	-3.370346923828125	0		2.058500244140625	-1.83775439453125	0		3.31058642578125	-0.7713580932617188	0		4.63184130859375	-0.2960621643066406	0		5.88424267578125	0.32327947998046874	0		-0.11341525268554688	5.9415927734375	0		
-0.015552387237548829	-0.0010322699546813966	0		0.5253648681640625	-2.75442236328125	0		-1.00497607421875	0.17877249145507812	0		-0.45482110595703124	-3.36184375	0		2.065866943359375	-1.8623421630859376	0		3.313554931640625	-0.7548623657226563	0		4.63974462890625	-0.28362661743164064	0		5.8919599609375	0.32372967529296875	0		-0.11277186584472657	5.941083984375	0		
-0.008755131721496582	0.006381575107574463	0		0.5520409545898437	-2.757300048828125	0		-1.0002254028320312	0.1832056121826172	0		-0.40825997924804686	-3.37302978515625	0		2.063536376953125	-1.8647698974609375	0		3.321778076171875	-0.7864373168945312	0		4.65630517578125	-0.2923089599609375	0		5.89164990234375	0.3243139953613281	0		-0.1462298126220703	5.93609521484375	0		
-0.009085710525512696	0.006913008213043213	0		0.5497108764648437	-2.758732666015625	0		-1.0056170043945312	0.17980130004882813	0		-0.4126279296875	-3.377442626953125	0		2.08195556640625	-1.882497314453125	0		3.342483642578125	-0.7841831665039063	0		4.651888671875	-0.2976663513183594	0		5.89544970703125	0.33384902954101564	0		-0.14662498474121094	5.93662548828125	0		
0.012518839836120605	0.004128074169158936	0		0.5702550659179687	-2.76749609375	0		-1.019129638671875	0.16952865600585937	0		-0.38304840087890624	-3.3843505859375	0		2.07549365234375	-1.8908421630859376	0		3.326891845703125	-0.8003796997070313	0		4.65154345703125	-0.29707470703125	0		5.89097900390625	0.32651425170898435	0		-0.12812701416015626	5.9308837890625	0		
-0.013836801528930664	0.00506753396987915	0		0.5248550415039063	-2.771267333984375	0		-1.0235490112304688	0.16613034057617188	0		-0.4213982849121094	-3.385236083984375	0		2.0848251953125	-1.9124158935546876	0		3.32246728515625	-0.8047340087890625	0		4.66193359375	-0.31363778686523436	0		5.90349658203125	0.3189328918457031	0		-0.1123982162475586	5.9411953125	0		
0.019485403060913085	-0.0158787841796875	0		0.5862613525390625	-2.788625732421875	0		-1.0130471801757812	0.15751510620117187	0		-0.4098612060546875	-3.393860107421875	0		2.0823046875	-1.92380615234375	0		3.362603271484375	-0.8387498779296875	0		4.65953076171875	-0.31600350952148437	0		5.9123544921875	0.3344137268066406	0		-0.14591920471191405	5.935244140625	0		
0.0024129869937896727	0.003932710886001587	0		0.5360869140625	-2.77731640625	0		-1.00848095703125	0.15299137878417968	0		-0.4051099548339844	-3.38837890625	0		2.110740478515625	-1.9386544189453125	0		3.364492431640625	-0.8221867065429688	0		4.68039794921875	-0.3007097473144531	0		5.91100927734375	0.3360491943359375	0		-0.1122662353515625	5.94029638671875	0		
0.02400316047668457	1.6688500344753265E-4	0		0.5856152954101562	-2.787491943359375	0		-1.02287353515625	0.1507496337890625	0		-0.4115240478515625	-3.394732421875	0		2.117279296875	-1.9471734619140626	0		3.351708984375	-0.8514072265625	0		4.67286083984375	-0.31299203491210936	0		5.91065771484375	0.33667486572265626	0		-0.1477349090576172	5.937376953125	0		
-0.0023300359249114992	0.0011128959655761718	0		0.5283348999023437	-2.78507861328125	0		-1.026389404296875	0.13934230041503906	0		-0.4148623046875	-3.39713330078125	0		2.1555322265625	-1.9761640625	0		3.3782763671875	-0.8582066040039062	0		4.67739404296875	-0.321447998046875	0		5.91033203125	0.33830743408203123	0		0.018268001556396483	5.96446484375	0		
0.003330077886581421	5.801060199737549E-4	0		0.57892578125	-2.79327099609375	0		-1.0258345947265626	0.1318699188232422	0		-0.45010479736328124	-3.394063720703125	0		2.138015380859375	-1.9903232421875	0		3.37572705078125	-0.8735709228515625	0		4.681177734375	-0.31388540649414065	0		5.90100390625	0.33908126831054686	0		-0.11349784851074218	5.94196875	0		
-0.008190479278564453	-0.012704153060913086	0		0.533587158203125	-2.79704296875	0		-1.02615087890625	0.132404541015625	0		-0.4045624084472656	-3.407200439453125	0		2.149568603515625	-2.0009146728515623	0		3.38958837890625	-0.862174560546875	0		4.68673486328125	-0.3223473205566406	0		5.91380126953125	0.34753326416015623	0		-0.11292216491699218	5.9415029296875	0		
0.009813052177429199	0.008571419715881348	0		0.5623121948242188	-2.797918212890625	0		-1.102746826171875	0.11405894470214843	0		-0.4346722412109375	-3.3972197265625	0		2.15413427734375	-2.011405517578125	0		3.3898681640625	-0.8905825805664063	0		4.680568359375	-0.3126332702636719	0		5.90862353515625	0.35725384521484377	0		-0.11333131408691406	5.9420458984375	0		
-0.01648294448852539	0.009493374824523925	0		0.5211874389648438	-2.788765380859375	0		-1.0331143798828124	0.10954108428955078	0		-0.40200115966796873	-3.403177734375	0		2.20748193359375	-2.037624755859375	0		3.4245966796875	-0.889501220703125	0		4.70325830078125	-0.31335055541992185	0		5.91706591796875	0.34076785278320315	0		-0.14683856201171874	5.93606982421875	0		
0.019968852996826172	-0.0075231800079345705	0		0.5806594848632812	-2.808111328125	0		-1.1115780029296876	0.09920377349853515	0		-0.4381969299316406	-3.400125244140625	0		2.1911845703125	-2.039818359375	0		3.39408740234375	-0.9044638061523438	0		4.6988828125	-0.3186744384765625	0		5.90803369140625	0.35953790283203124	0		-0.1283183135986328	5.9313154296875	0		
-0.014300756454467774	-0.0055036449432373045	0		0.5793798828125	-2.810567626953125	0		-1.0400677490234376	0.08563973236083984	0		-0.4054986572265625	-3.405102294921875	0		2.233457763671875	-2.071890380859375	0		3.411769775390625	-0.9071476440429688	0		4.7136875	-0.3122904968261719	0		5.90773876953125	0.36016647338867186	0		-0.16181756591796875	5.925318359375	0		
